<svg preserveAspectRatio="none" width="100%" height="100%" overflow="visible" style="display: block;" viewBox="0 0 24 24" fill="none" xmlns="http://www.w3.org/2000/svg">
<g id="pajamas:mail">
<path id="Vector" fill-rule="evenodd" clip-rule="evenodd" d="M3 5.25H21C21.1989 5.25 21.3897 5.32902 21.5303 5.46967C21.671 5.61032 21.75 5.80109 21.75 6V6.858L12 12.429L2.25 6.858V6C2.25 5.80109 2.32902 5.61032 2.46967 5.46967C2.61032 5.32902 2.80109 5.25 3 5.25ZM2.25 9.45V18C2.25 18.1989 2.32902 18.3897 2.46967 18.5303C2.61032 18.671 2.80109 18.75 3 18.75H21C21.1989 18.75 21.3897 18.671 21.5303 18.5303C21.671 18.3897 21.75 18.1989 21.75 18V9.45L12.558 14.7L12 15.021L11.442 14.7L2.25 9.45ZM0 6C0 5.20435 0.316071 4.44129 0.87868 3.87868C1.44129 3.31607 2.20435 3 3 3H21C21.7956 3 22.5587 3.31607 23.1213 3.87868C23.6839 4.44129 24 5.20435 24 6V18C24 18.7956 23.6839 19.5587 23.1213 20.1213C22.5587 20.6839 21.7956 21 21 21H3C2.20435 21 1.44129 20.6839 0.87868 20.1213C0.316071 19.5587 0 18.7956 0 18V6Z" fill="var(--fill-0, white)"/>
</g>
</svg>
