<svg width="50" height="50" viewBox="0 0 50 50" fill="none" xmlns="http://www.w3.org/2000/svg">
<path d="M5 42C3.9 42 2.95867 41.6087 2.176 40.826C1.39333 40.0433 1.00133 39.1013 1 38H9C7.9 38 6.95867 37.6087 6.176 36.826C5.39333 36.0433 5.00133 35.1013 5 34V12C5 10.9 5.392 9.95867 6.176 9.176C6.96 8.39333 7.90133 8.00133 9 8H41C42.1 8 43.042 8.392 43.826 9.176C44.61 9.96 45.0013 10.9013 45 12V34C45 35.1 44.6087 36.042 43.826 36.826C43.0433 37.61 42.1013 38.0013 41 38H49C49 39.1 48.6087 40.042 47.826 40.826C47.0433 41.61 46.1013 42.0013 45 42H5ZM25 40C25.5667 40 26.042 39.808 26.426 39.424C26.81 39.04 27.0013 38.5653 27 38C26.9987 37.4347 26.8067 36.96 26.424 36.576C26.0413 36.192 25.5667 36 25 36C24.4333 36 23.9587 36.192 23.576 36.576C23.1933 36.96 23.0013 37.4347 23 38C22.9987 38.5653 23.1907 39.0407 23.576 39.426C23.9613 39.8113 24.436 40.0027 25 40ZM9 34H41V12H9V34Z" fill="#5C7A55"/>
</svg>
