<svg width="50" height="50" viewBox="0 0 50 50" fill="none" xmlns="http://www.w3.org/2000/svg">
<g clip-path="url(#clip0_1122_1733)">
<path d="M14.9655 31.721L16.1917 30.0401C16.2561 29.9467 16.2907 29.8352 16.2907 29.7209C16.2907 29.6066 16.2561 29.4951 16.1917 29.4018C15.0064 27.8275 14.2756 25.9447 14.0821 23.9669C13.8886 21.9891 14.2401 19.9953 15.0969 18.2116C15.9536 16.4279 17.2812 14.9256 18.9293 13.875C20.5774 12.8244 22.48 12.2676 24.4214 12.2676C26.3628 12.2676 28.2654 12.8244 29.9134 13.875C31.5615 14.9256 32.8892 16.4279 33.7459 18.2116C34.6026 19.9953 34.9542 21.9891 34.7607 23.9669C34.5672 25.9447 33.8363 27.8275 32.6511 29.4018C32.5836 29.4938 32.5472 29.6058 32.5472 29.7209C32.5472 29.836 32.5836 29.948 32.6511 30.0401L33.9188 31.7423C34.1191 32.0303 34.293 32.3366 34.4383 32.6573C34.4718 32.7414 34.5257 32.8153 34.595 32.8721C34.6643 32.9288 34.7466 32.9665 34.8341 32.9814C34.9216 32.9963 35.0114 32.9881 35.0949 32.9574C35.1784 32.9267 35.2529 32.8747 35.3112 32.8062C37.1787 30.6616 38.4004 28.0096 38.8292 25.1702C39.258 22.3307 38.8754 19.4248 37.7277 16.8029C36.58 14.1809 34.7161 11.9548 32.3606 10.3929C30.0052 8.83104 27.2588 8 24.4526 8C21.6463 8 18.8999 8.83104 16.5445 10.3929C14.189 11.9548 12.3251 14.1809 11.1774 16.8029C10.0297 19.4248 9.64715 22.3307 10.0759 25.1702C10.5047 28.0096 11.7264 30.6616 13.5939 32.8062C13.6408 32.8726 13.7038 32.9252 13.7768 32.9588C13.8497 32.9924 13.93 33.0058 14.0096 32.9977C14.0962 32.9916 14.1794 32.9603 14.2493 32.9076C14.3192 32.8548 14.373 32.7827 14.4044 32.6998C14.5516 32.3623 14.7326 32.0414 14.9448 31.7423L14.9655 31.721ZM3.07821 25.0185H6.19551C6.74669 25.0185 7.27529 24.7944 7.66503 24.3953C8.05477 23.9963 8.27372 23.4551 8.27372 22.8908C8.27372 22.3264 8.05477 21.7852 7.66503 21.3862C7.27529 20.9872 6.74669 20.763 6.19551 20.763H3.07821C2.52703 20.763 1.99843 20.9872 1.60869 21.3862C1.21895 21.7852 1 22.3264 1 22.8908C1 23.4551 1.21895 23.9963 1.60869 24.3953C1.99843 24.7944 2.52703 25.0185 3.07821 25.0185Z" fill="#764F4F"/>
<path d="M10.625 12.0208C11.0153 12.4089 11.5434 12.6267 12.0937 12.6267C12.6441 12.6267 13.1722 12.4089 13.5625 12.0208C13.9505 11.6305 14.1683 11.1025 14.1683 10.5521C14.1683 10.0017 13.9505 9.47367 13.5625 9.08333L11.3542 6.85417C11.1595 6.6493 10.9253 6.48616 10.6656 6.37469C10.406 6.26321 10.1263 6.20573 9.84375 6.20573C9.56117 6.20573 9.28155 6.26321 9.02189 6.37469C8.76223 6.48616 8.52796 6.6493 8.33333 6.85417C8.13807 7.04784 7.98308 7.27826 7.87731 7.53213C7.77154 7.78601 7.71709 8.05831 7.71709 8.33333C7.71709 8.60836 7.77154 8.88066 7.87731 9.13453C7.98308 9.38841 8.13807 9.61883 8.33333 9.8125L10.625 12.0208ZM25 7.29167C25.5525 7.29167 26.0824 7.07217 26.4731 6.68147C26.8638 6.29077 27.0833 5.76087 27.0833 5.20833V2.08333C27.0833 1.5308 26.8638 1.00089 26.4731 0.610194C26.0824 0.219493 25.5525 0 25 0C24.4475 0 23.9176 0.219493 23.5269 0.610194C23.1362 1.00089 22.9167 1.5308 22.9167 2.08333V5.20833C22.9167 5.76087 23.1362 6.29077 23.5269 6.68147C23.9176 7.07217 24.4475 7.29167 25 7.29167ZM8.33333 40.0208C8.72367 40.4089 9.2517 40.6267 9.80208 40.6267C10.3525 40.6267 10.8805 40.4089 11.2708 40.0208L13.4792 37.7917C13.7597 37.3946 13.8925 36.912 13.8546 36.4273C13.8167 35.9426 13.6105 35.4865 13.2718 35.1378C12.933 34.7892 12.483 34.57 11.9996 34.5182C11.5162 34.4664 11.03 34.5852 10.625 34.8542L8.33333 37.0625C8.13807 37.2562 7.98308 37.4866 7.87731 37.7405C7.77154 37.9943 7.71709 38.2666 7.71709 38.5417C7.71709 38.8167 7.77154 39.089 7.87731 39.3429C7.98308 39.5967 8.13807 39.8272 8.33333 40.0208ZM41.125 23.4375C41.125 23.99 41.3445 24.5199 41.7352 24.9106C42.1259 25.3013 42.6558 25.5208 43.2083 25.5208H46.3333C46.8859 25.5208 47.4158 25.3013 47.8065 24.9106C48.1972 24.5199 48.4167 23.99 48.4167 23.4375C48.4167 22.885 48.1972 22.3551 47.8065 21.9644C47.4158 21.5737 46.8859 21.3542 46.3333 21.3542H43.2083C42.6558 21.3542 42.1259 21.5737 41.7352 21.9644C41.3445 22.3551 41.125 22.885 41.125 23.4375ZM37.875 12.625C38.1492 12.6266 38.421 12.574 38.6748 12.4704C38.9286 12.3667 39.1595 12.2139 39.3542 12.0208L41.6667 9.8125C41.8619 9.61883 42.0169 9.38841 42.1227 9.13453C42.2285 8.88066 42.2829 8.60836 42.2829 8.33333C42.2829 8.05831 42.2285 7.78601 42.1227 7.53213C42.0169 7.27826 41.8619 7.04784 41.6667 6.85417C41.2763 6.46614 40.7483 6.24835 40.1979 6.24835C39.6475 6.24835 39.1195 6.46614 38.7292 6.85417L36.3958 9.08333C36.0078 9.47367 35.79 10.0017 35.79 10.5521C35.79 11.1025 36.0078 11.6305 36.3958 12.0208C36.5905 12.2139 36.8214 12.3667 37.0752 12.4704C37.329 12.574 37.6008 12.6266 37.875 12.625ZM39.3542 34.8542C39.1605 34.6589 38.9301 34.5039 38.6762 34.3981C38.4223 34.2924 38.15 34.2379 37.875 34.2379C37.6 34.2379 37.3277 34.2924 37.0738 34.3981C36.8199 34.5039 36.5895 34.6589 36.3958 34.8542C36.0078 35.2445 35.79 35.7725 35.79 36.3229C35.79 36.8733 36.0078 37.4013 36.3958 37.7917L38.625 40.0208C39.013 40.4057 39.5368 40.6227 40.0833 40.625C40.3575 40.6266 40.6293 40.574 40.8831 40.4704C41.137 40.3667 41.3678 40.2139 41.5625 40.0208C41.7578 39.8272 41.9128 39.5967 42.0185 39.3429C42.1243 39.089 42.1787 38.8167 42.1787 38.5417C42.1787 38.2666 42.1243 37.9943 42.0185 37.7405C41.9128 37.4866 41.7578 37.2562 41.5625 37.0625L39.3542 34.8542ZM50 47.9167C50 47.3641 49.7805 46.8342 49.3898 46.4435C48.9991 46.0528 48.4692 45.8333 47.9167 45.8333H2.08333C1.5308 45.8333 1.00089 46.0528 0.610194 46.4435C0.219493 46.8342 0 47.3641 0 47.9167C0 48.4692 0.219493 48.9991 0.610194 49.3898C1.00089 49.7805 1.5308 50 2.08333 50H47.9167C48.4692 50 48.9991 49.7805 49.3898 49.3898C49.7805 48.9991 50 48.4692 50 47.9167Z" fill="#764F4F"/>
</g>
<defs>
<clipPath id="clip0_1122_1733">
<rect width="50" height="50" fill="white"/>
</clipPath>
</defs>
</svg>
