<svg width="50" height="50" viewBox="0 0 50 50" fill="none" xmlns="http://www.w3.org/2000/svg">
<path d="M1 48C1 43.3997 2.83895 38.9878 6.11231 35.7349C9.38567 32.4821 13.8253 30.6546 18.4545 30.6546C23.0838 30.6546 27.5234 32.4821 30.7968 35.7349C34.0701 38.9878 35.9091 43.3997 35.9091 48H1ZM18.4545 28.4864C11.2218 28.4864 5.36363 22.6649 5.36363 15.4774C5.36363 8.28988 11.2218 2.46833 18.4545 2.46833C25.6873 2.46833 31.5454 8.28988 31.5454 15.4774C31.5454 22.6649 25.6873 28.4864 18.4545 28.4864ZM38.6276 7.20579C39.7154 9.82944 40.2743 12.6398 40.2727 15.4774C40.2746 18.3157 39.7156 21.1268 38.6276 23.7511L34.9687 21.106C35.5927 19.2942 35.9104 17.3923 35.9091 15.4774C35.9111 13.5626 35.5941 11.6607 34.9709 9.84879L38.6276 7.20579ZM45.832 2C47.9227 6.18849 49.0072 10.8019 49 15.4774C49 20.3189 47.8589 24.8959 45.832 28.9569L42.2429 26.3616C43.8222 22.9478 44.6387 19.2346 44.6363 15.4774C44.6387 11.7201 43.8222 8.00692 42.2429 4.59314L45.832 2Z" fill="#537779"/>
</svg>
